<?xml version="1.0" encoding="UTF-8"?>
<svg id="Layer_2" data-name="Layer 2" xmlns="http://www.w3.org/2000/svg" viewBox="0 0 170 170">
  <defs>
    <style>
      .cls-1 {
        fill: #fff;
      }

      .cls-2 {
        fill: #900;
      }
    </style>
  </defs>
  <g id="Layer_1-2" data-name="Layer 1">
    <circle class="cls-2" cx="85" cy="85" r="85"/>
    <rect class="cls-1" x="65.5" y="129.59" width="39" height="6"/>
    <rect class="cls-1" x="77" y="118.7" width="16" height="6"/>
    <path class="cls-1" d="M129.18,45.86H40.82c-2.94,0-5.32,2.38-5.32,5.32v57.37c0,2.94,2.38,5.32,5.32,5.32h88.37c2.94,0,5.32-2.38,5.32-5.32v-57.37c0-2.94-2.38-5.32-5.32-5.32ZM129,106.16c0,1.21-.98,2.2-2.2,2.2H43.2c-1.21,0-2.2-.98-2.2-2.2v-52.61c0-1.21.98-2.2,2.2-2.2h83.61c1.21,0,2.2.98,2.2,2.2v52.61Z"/>
    <rect class="cls-1" x="57.5" y="36.86" width="55" height="86" rx="1.33" ry="1.33" transform="translate(164.86 -5.14) rotate(90)"/>
    <g>
      <path class="cls-2" d="M54.86,87.49l-7.74-6.52,7.74-6.51,1.79,1.81-5.69,4.67,5.69,4.73-1.79,1.81Z"/>
      <path class="cls-2" d="M70.59,87.23h-3.32l-1.48-4.63-.54-1.88-.52,1.93-1.46,4.58h-3.18l-.84-15.01h2.49l.36,9.62.09,2.63.68-2.34,1.65-5.34h1.78l1.75,5.66.56,2,.05-2.34.38-9.89h2.4l-.85,15.01Z"/>
      <path class="cls-2" d="M84.13,79.54c0,1.16-.14,2.22-.43,3.17s-.73,1.76-1.34,2.43-1.39,1.19-2.34,1.55-2.09.55-3.41.55h-3.81v-15.01h4.44c1.15,0,2.15.14,3.01.43s1.58.73,2.15,1.33,1,1.35,1.29,2.27.43,2.01.43,3.28ZM81.1,79.72c0-.81-.07-1.53-.2-2.17s-.35-1.17-.66-1.61-.73-.78-1.25-1-1.17-.34-1.94-.34h-1.44v10.28h1.24c1.39,0,2.44-.41,3.16-1.24s1.08-2.13,1.08-3.9Z"/>
      <path class="cls-2" d="M97.06,79.54c0,1.16-.14,2.22-.43,3.17s-.73,1.76-1.34,2.43-1.39,1.19-2.34,1.55-2.09.55-3.41.55h-3.81v-15.01h4.44c1.15,0,2.15.14,3.01.43s1.58.73,2.15,1.33,1,1.35,1.29,2.27.43,2.01.43,3.28ZM94.03,79.72c0-.81-.07-1.53-.2-2.17s-.35-1.17-.66-1.61-.73-.78-1.25-1-1.17-.34-1.94-.34h-1.44v10.28h1.24c1.39,0,2.44-.41,3.16-1.24s1.08-2.13,1.08-3.9Z"/>
      <path class="cls-2" d="M107.42,87.23l-.83-2.96h-5.24l-.85,2.96h-2.8l4.44-15.01h3.95l4.44,15.01h-3.12ZM104.01,74.98l-1.97,6.98h3.93l-1.95-6.98Z"/>
      <path class="cls-2" d="M114.61,74.46l7.74,6.51-7.74,6.52-1.78-1.81,5.68-4.68-5.68-4.72,1.78-1.81Z"/>
    </g>
  </g>
</svg>